<?xml version="1.0" encoding="UTF-8" standalone="no"?>
<svg
   width="210mm"
   height="297mm"
   viewBox="0 0 210 297"
   version="1.1"
   id="svg1"
   xmlns="http://www.w3.org/2000/svg"
   xmlns:svg="http://www.w3.org/2000/svg">
  <defs
     id="defs1" />
  <path
     d="M 20.0 20.0 L 120.0 20.0 M 20.0 20.0 L 20.0 24.0 M 21.0 20.0 L 21.0 21.5 M 22.0 20.0 L 22.0 21.5 M 23.0 20.0 L 23.0 21.5 M 24.0 20.0 L 24.0 21.5 M 25.0 20.0 L 25.0 22.5 M 26.0 20.0 L 26.0 21.5 M 27.0 20.0 L 27.0 21.5 M 28.0 20.0 L 28.0 21.5 M 29.0 20.0 L 29.0 21.5 M 30.0 20.0 L 30.0 24.0 M 31.0 20.0 L 31.0 21.5 M 32.0 20.0 L 32.0 21.5 M 33.0 20.0 L 33.0 21.5 M 34.0 20.0 L 34.0 21.5 M 35.0 20.0 L 35.0 22.5 M 36.0 20.0 L 36.0 21.5 M 37.0 20.0 L 37.0 21.5 M 38.0 20.0 L 38.0 21.5 M 39.0 20.0 L 39.0 21.5 M 40.0 20.0 L 40.0 24.0 M 41.0 20.0 L 41.0 21.5 M 42.0 20.0 L 42.0 21.5 M 43.0 20.0 L 43.0 21.5 M 44.0 20.0 L 44.0 21.5 M 45.0 20.0 L 45.0 22.5 M 46.0 20.0 L 46.0 21.5 M 47.0 20.0 L 47.0 21.5 M 48.0 20.0 L 48.0 21.5 M 49.0 20.0 L 49.0 21.5 M 50.0 20.0 L 50.0 24.0 M 51.0 20.0 L 51.0 21.5 M 52.0 20.0 L 52.0 21.5 M 53.0 20.0 L 53.0 21.5 M 54.0 20.0 L 54.0 21.5 M 55.0 20.0 L 55.0 22.5 M 56.0 20.0 L 56.0 21.5 M 57.0 20.0 L 57.0 21.5 M 58.0 20.0 L 58.0 21.5 M 59.0 20.0 L 59.0 21.5 M 60.0 20.0 L 60.0 24.0 M 61.0 20.0 L 61.0 21.5 M 62.0 20.0 L 62.0 21.5 M 63.0 20.0 L 63.0 21.5 M 64.0 20.0 L 64.0 21.5 M 65.0 20.0 L 65.0 22.5 M 66.0 20.0 L 66.0 21.5 M 67.0 20.0 L 67.0 21.5 M 68.0 20.0 L 68.0 21.5 M 69.0 20.0 L 69.0 21.5 M 70.0 20.0 L 70.0 24.0 M 71.0 20.0 L 71.0 21.5 M 72.0 20.0 L 72.0 21.5 M 73.0 20.0 L 73.0 21.5 M 74.0 20.0 L 74.0 21.5 M 75.0 20.0 L 75.0 22.5 M 76.0 20.0 L 76.0 21.5 M 77.0 20.0 L 77.0 21.5 M 78.0 20.0 L 78.0 21.5 M 79.0 20.0 L 79.0 21.5 M 80.0 20.0 L 80.0 24.0 M 81.0 20.0 L 81.0 21.5 M 82.0 20.0 L 82.0 21.5 M 83.0 20.0 L 83.0 21.5 M 84.0 20.0 L 84.0 21.5 M 85.0 20.0 L 85.0 22.5 M 86.0 20.0 L 86.0 21.5 M 87.0 20.0 L 87.0 21.5 M 88.0 20.0 L 88.0 21.5 M 89.0 20.0 L 89.0 21.5 M 90.0 20.0 L 90.0 24.0 M 91.0 20.0 L 91.0 21.5 M 92.0 20.0 L 92.0 21.5 M 93.0 20.0 L 93.0 21.5 M 94.0 20.0 L 94.0 21.5 M 95.0 20.0 L 95.0 22.5 M 96.0 20.0 L 96.0 21.5 M 97.0 20.0 L 97.0 21.5 M 98.0 20.0 L 98.0 21.5 M 99.0 20.0 L 99.0 21.5 M 100.0 20.0 L 100.0 24.0 M 101.0 20.0 L 101.0 21.5 M 102.0 20.0 L 102.0 21.5 M 103.0 20.0 L 103.0 21.5 M 104.0 20.0 L 104.0 21.5 M 105.0 20.0 L 105.0 22.5 M 106.0 20.0 L 106.0 21.5 M 107.0 20.0 L 107.0 21.5 M 108.0 20.0 L 108.0 21.5 M 109.0 20.0 L 109.0 21.5 M 110.0 20.0 L 110.0 24.0 M 111.0 20.0 L 111.0 21.5 M 112.0 20.0 L 112.0 21.5 M 113.0 20.0 L 113.0 21.5 M 114.0 20.0 L 114.0 21.5 M 115.0 20.0 L 115.0 22.5 M 116.0 20.0 L 116.0 21.5 M 117.0 20.0 L 117.0 21.5 M 118.0 20.0 L 118.0 21.5 M 119.0 20.0 L 119.0 21.5 M 120.0 20.0 L 120.0 24.0"
     stroke="black"
     stroke-width="0.3"
     fill="none"
     id="path1" />
</svg>
